<svg xmlns="http://www.w3.org/2000/svg" xmlns:xlink="http://www.w3.org/1999/xlink" width="500" zoomAndPan="magnify" viewBox="0 0 375 374.999991" height="500" preserveAspectRatio="xMidYMid meet" version="1.0"><defs><clipPath id="3163cba054"><path d="M 37.5 0 L 337 0 L 337 375 L 37.5 375 Z M 37.5 0 " clip-rule="nonzero"/></clipPath></defs><g clip-path="url(#3163cba054)"><path fill="#43121e" d="M 46.925781 329.238281 C 39.308594 322.125 43.320312 313.476562 49.789062 307.914062 C 55.089844 303.351562 61.535156 301.105469 68.289062 299.691406 C 70.132812 299.304688 71.976562 298.835938 73.9375 298.363281 C 67.839844 286.402344 67.429688 274.132812 72.730469 262.070312 C 78.996094 247.820312 88.980469 238.332031 105.949219 239.457031 C 107.175781 239.539062 107.769531 239.25 107.976562 237.941406 C 108.792969 232.871094 109.917969 227.863281 111.78125 223.015625 C 107.402344 222.730469 107.136719 222.363281 108.609375 218.335938 C 112.3125 208.253906 117.246094 198.703125 121.421875 188.828125 C 121.6875 188.214844 122.015625 187.621094 122.261719 187.007812 C 123.140625 184.71875 124.839844 182.367188 124.65625 180.160156 C 124.492188 177.929688 121.238281 177.296875 119.621094 175.621094 C 119.007812 174.988281 118.371094 174.351562 117.796875 173.65625 C 116.734375 172.347656 115.8125 170.609375 114.339844 173.351562 C 113.828125 174.3125 112.765625 174.617188 111.699219 174.210938 C 110.492188 173.738281 110.207031 172.554688 110.0625 171.449219 C 109.652344 168.339844 109.507812 165.210938 109.039062 162.125 C 107.566406 152.699219 104.371094 143.84375 99.890625 134.765625 C 96.636719 141.574219 92.789062 147.21875 86.875 151.144531 C 86.136719 151.636719 85.402344 152.1875 84.601562 152.554688 C 78.808594 155.171875 77.765625 154.558594 76.601562 148.382812 C 75.023438 140.023438 70.335938 133.398438 64.441406 127.589844 C 58.386719 121.640625 51.957031 116.058594 45.984375 110.046875 C 40.988281 104.996094 37.589844 99.105469 37.917969 91.5625 C 38.226562 84.546875 42.074219 79.582031 47.046875 75.449219 C 60.636719 64.222656 72.957031 51.894531 83.539062 37.703125 C 92.175781 26.152344 101.792969 24.371094 114.667969 31.714844 C 119.742188 34.617188 123.386719 35.925781 128.277344 31.34375 C 131.839844 28.011719 136.933594 26.519531 141.683594 24.578125 C 139.941406 22.554688 138.246094 20.9375 136.976562 19.015625 C 135.378906 16.601562 136.054688 15.664062 138.917969 15.519531 C 141.007812 15.417969 143.832031 16.949219 144.9375 15.4375 C 145.878906 14.148438 144.671875 11.410156 144.671875 9.304688 C 144.691406 6.910156 143.769531 3.84375 145.960938 2.371094 C 148.273438 0.796875 150.195312 3.578125 152.160156 4.601562 C 154.308594 5.703125 156.234375 7.238281 158.875 8.996094 C 158.875 6.972656 158.710938 5.460938 158.914062 3.988281 C 159.324219 0.898438 161.1875 0 163.847656 1.675781 C 165.730469 2.863281 167.714844 4.070312 169.230469 5.664062 C 174.917969 11.714844 182.082031 14.089844 190.1875 14.703125 C 196.796875 15.191406 203.203125 16.746094 209.160156 19.792969 C 210.570312 20.507812 211.082031 19.976562 211.882812 19.015625 C 214.6875 15.519531 217.570312 12.105469 221.253906 9.46875 C 231.324219 2.25 240.921875 1.921875 251.566406 8.425781 C 260.242188 13.71875 268.226562 20.097656 276.921875 25.355469 C 284.699219 30.035156 293.03125 33.574219 301.054688 37.746094 C 314.886719 44.964844 318.144531 57.496094 309.445312 70.542969 C 304.921875 77.308594 299.640625 83.566406 295.078125 90.316406 C 289.878906 98.042969 286.359375 106.386719 287.523438 116.117188 C 287.894531 119.207031 286.296875 120.433594 282.898438 120.167969 C 275.429688 119.574219 269.761719 115.503906 264.582031 110.558594 C 263.722656 109.738281 263.109375 108.65625 262.148438 107.347656 C 256.742188 120.535156 255.3125 133.398438 256.5 146.605469 C 256.886719 150.980469 256.210938 151.617188 251.996094 150.53125 C 252.546875 159.816406 251.136719 159.386719 259.054688 163.882812 C 261.472656 165.253906 264.132812 166.253906 266.320312 168.035156 C 268.285156 169.628906 268.511719 171.140625 266.527344 173.023438 C 264.355469 175.089844 261.65625 176.109375 258.789062 177.316406 C 263.109375 181.917969 266.566406 186.949219 269.25 192.507812 C 270.066406 194.207031 270.785156 195.984375 271.296875 197.804688 C 272.011719 200.382812 270.742188 201.855469 268.0625 201.914062 C 266.402344 201.957031 264.828125 201.015625 262.964844 201.589844 C 265.871094 211.730469 268.675781 221.851562 270.621094 232.15625 C 271.070312 234.570312 270.824219 237.59375 272.214844 239.210938 C 273.566406 240.804688 276.554688 239.128906 278.847656 239.230469 C 289.082031 239.679688 296.734375 244.792969 302.28125 252.910156 C 311.65625 266.652344 313.457031 281.351562 306.476562 296.789062 C 306.292969 297.179688 306.210938 297.585938 306.027344 298.117188 C 314.480469 299.613281 322.5625 301.574219 329.335938 306.953125 C 331.179688 308.425781 332.898438 310 334.207031 312.003906 C 338.160156 318.09375 337.933594 322.878906 333.390625 328.585938 C 333.246094 329.238281 327.742188 335.578125 324.917969 337.335938 C 316.914062 342.285156 309.117188 347.683594 298.800781 347.335938 C 288.855469 347.007812 278.929688 346.660156 268.511719 345.636719 C 270.332031 349.195312 270.90625 352.609375 270.679688 356.167969 C 270.332031 361.523438 266.730469 365.71875 261.410156 366.492188 C 259.589844 366.761719 257.972656 367.210938 256.476562 368.335938 C 251.710938 371.953125 246.285156 372.75 240.535156 371.542969 C 238.34375 371.09375 236.441406 371.257812 234.375 372.136719 C 227.660156 375 220.785156 374.367188 213.96875 372.527344 C 211.78125 371.933594 209.671875 371.585938 207.378906 371.808594 C 200.523438 372.503906 195.078125 368.578125 193.460938 361.894531 C 192.542969 358.132812 192.664062 354.328125 193.421875 350.566406 C 193.914062 348.113281 193.15625 347.007812 190.535156 347.109375 C 187.078125 347.253906 183.597656 347.128906 180.117188 347.152344 C 178.09375 347.171875 177.253906 348.132812 177.601562 350.117188 C 178.070312 352.671875 178.113281 355.226562 177.96875 357.804688 C 177.4375 367.351562 170.765625 373.035156 161.332031 371.726562 C 158.75 371.359375 156.5 371.769531 154.148438 372.566406 C 148.335938 374.53125 142.542969 375 136.953125 371.789062 C 135.480469 370.929688 133.988281 371.195312 132.410156 371.484375 C 127.273438 372.445312 122.320312 372.503906 118.578125 367.925781 C 118.003906 367.230469 117.164062 366.839844 116.285156 366.597656 C 112.128906 365.492188 110.347656 362.363281 109.816406 358.480469 C 109.386719 355.390625 109.429688 352.222656 109.917969 349.113281 C 110.410156 345.984375 110.101562 345.578125 106.953125 345.882812 C 97.824219 346.78125 88.675781 347.234375 79.484375 347.128906 C 74.082031 347.070312 69.027344 346.128906 64.832031 342.386719 C 64.421875 342.019531 63.929688 341.628906 63.398438 341.546875 C 56.339844 340.402344 47.046875 329.667969 46.925781 329.238281 Z M 46.925781 329.238281 " fill-opacity="1" fill-rule="nonzero"/></g><path fill="#fcfcfc" d="M 250.972656 165.683594 C 254.105469 167.378906 257.214844 169.058594 260.796875 171 C 257.359375 172.164062 254.328125 172.429688 251.21875 172.226562 C 250.175781 172.144531 248.742188 171.386719 248.167969 172.636719 C 247.554688 173.964844 248.925781 174.863281 249.765625 175.660156 C 255.269531 180.875 259.21875 187.234375 263.171875 193.59375 C 263.3125 193.839844 263.335938 194.164062 263.496094 194.800781 C 257.316406 193.550781 251.769531 191.425781 246.675781 188.09375 C 245.898438 187.582031 244.996094 185.882812 243.972656 187.214844 C 243.15625 188.296875 244.648438 189.15625 245.386719 189.890625 C 247.757812 192.242188 249.949219 194.820312 252.917969 196.515625 C 253.816406 197.027344 254.453125 197.785156 254.699219 198.828125 C 257.847656 211.628906 261.042969 224.40625 264.195312 237.207031 C 264.296875 237.59375 264.214844 238.003906 264.214844 238.800781 C 258.523438 234.710938 253.878906 230.171875 250.769531 224.222656 C 250.378906 223.464844 250.195312 222.15625 249.128906 222.445312 C 247.820312 222.8125 248.269531 224.101562 248.578125 225 C 249.683594 228.167969 250.953125 231.339844 253.246094 233.832031 C 254.71875 235.449219 255.289062 237.167969 255.515625 239.230469 C 257.890625 260.90625 257.953125 282.496094 253.121094 303.90625 C 252.058594 308.585938 251.523438 313.371094 250.6875 318.484375 C 248.945312 314.230469 249.558594 310 248.886719 305.929688 C 246.714844 311.347656 247.042969 316.910156 247.289062 322.511719 C 247.636719 330.8125 250.851562 338.378906 253.203125 346.167969 C 253.980469 348.726562 254.511719 351.363281 255.066406 353.980469 C 255.863281 357.703125 254.371094 360.460938 251.421875 362.691406 C 248.128906 365.183594 244.382812 365.410156 240.554688 364.816406 C 238.835938 364.550781 239.714844 362.976562 239.878906 362.035156 C 240.554688 358.417969 239.53125 355.1875 237.855469 352.058594 C 237.179688 350.8125 236.074219 349.644531 234.640625 350.402344 C 233.125 351.179688 234.167969 352.507812 234.640625 353.613281 C 237.585938 360.644531 233.964844 366.597656 226.414062 366.984375 C 223.957031 367.105469 221.5 366.984375 219.046875 366.839844 C 217.734375 366.761719 216.425781 366.414062 214.972656 366.144531 C 215.914062 363.078125 217.941406 360.605469 217.980469 357.496094 C 218 356.394531 218.023438 355.25 217.859375 354.164062 C 217.714844 353.140625 217.347656 352.097656 216.078125 352.078125 C 214.6875 352.058594 214.523438 353.246094 214.542969 354.226562 C 214.605469 358.007812 213.027344 360.851562 209.855469 362.855469 C 205.761719 358.683594 203.921875 354.0625 206.089844 348.171875 C 208.875 340.628906 212.453125 333.429688 214.890625 325.742188 C 220.355469 308.484375 222.585938 290.902344 220.253906 272.90625 C 219.578125 267.671875 217.917969 262.664062 214.664062 258.347656 C 213.867188 257.285156 213.171875 256.140625 212.660156 254.914062 C 212.351562 254.339844 212.066406 253.75 211.738281 253.195312 C 211.351562 252.523438 210.960938 251.722656 209.980469 252.234375 C 209.160156 252.664062 209.570312 253.378906 209.773438 253.972656 C 210.347656 255.753906 210.816406 257.570312 210.777344 259.453125 C 211.371094 265.691406 211.941406 272.234375 209.9375 278 C 207.769531 284.234375 205.578125 290.675781 201.832031 296.300781 C 200.851562 297.792969 199.929688 299.324219 199.070312 300.878906 C 198.085938 302.636719 196.960938 304.335938 195.53125 305.746094 C 188.570312 312.617188 182.429688 313.3125 176.351562 304.824219 C 172.363281 299.242188 169.269531 293.171875 167.304688 286.605469 C 165.28125 279.859375 163.582031 273.050781 162.3125 266.121094 C 161.65625 262.5625 161.761719 259.066406 162.3125 255.546875 C 161.984375 254.628906 163.886719 253.277344 162.003906 252.765625 C 160.53125 252.359375 160.308594 253.914062 159.9375 254.894531 C 156.191406 265.15625 155.578125 275.851562 155.96875 286.605469 C 156.5625 302.902344 160.121094 318.6875 164.808594 334.226562 C 166.773438 340.75 168.839844 347.253906 169.78125 354.042969 C 170.050781 355.921875 170.171875 357.824219 169.886719 359.726562 C 169.515625 362.117188 168.433594 363.917969 166.039062 364.757812 C 163.539062 365.636719 161.371094 364.960938 159.550781 363.222656 C 157.175781 360.953125 156.089844 358.109375 155.96875 354.820312 C 155.925781 353.449219 156.070312 351.507812 153.941406 351.648438 C 152.019531 351.773438 152.078125 353.613281 151.996094 355.042969 C 151.832031 357.988281 152.160156 360.890625 153.554688 363.507812 C 154.433594 365.144531 154.148438 365.839844 152.34375 366.207031 C 149.253906 366.820312 146.101562 367.066406 143.011719 366.65625 C 139.65625 366.207031 137.222656 361.996094 137.710938 357.722656 C 137.894531 356.1875 138.449219 354.695312 138.835938 353.183594 C 139.082031 352.203125 139.453125 351.097656 138.203125 350.566406 C 137.058594 350.074219 136.238281 350.832031 135.6875 351.710938 C 133.699219 354.902344 132.269531 358.335938 133.167969 362.179688 C 133.679688 364.347656 132.945312 365.042969 130.898438 365 C 129.769531 364.980469 128.667969 365.125 127.539062 365.144531 C 123.367188 365.226562 121.320312 362.566406 122.402344 358.457031 C 122.9375 356.476562 124 354.777344 125.207031 353.140625 C 125.839844 352.285156 126.25 351.382812 125.1875 350.503906 C 124.226562 349.726562 123.367188 349.953125 122.464844 350.605469 C 120.03125 352.386719 118.945312 355.105469 117.65625 358.109375 C 116.203125 355.0625 116.878906 352.425781 117.574219 349.910156 C 118.269531 347.335938 119.066406 344.699219 120.398438 342.40625 C 125.289062 334.003906 125.921875 325.148438 124.019531 315.847656 C 122.425781 308.078125 120.601562 300.347656 119.761719 292.433594 C 117.984375 275.484375 117.960938 258.535156 120.007812 241.582031 C 120.234375 239.742188 121.359375 238.554688 122.546875 237.390625 C 125.574219 234.445312 127.621094 230.910156 129.15625 227.023438 C 129.503906 226.164062 129.792969 225.121094 128.828125 224.613281 C 127.539062 223.9375 127.457031 225.386719 127.070312 226.023438 C 123.917969 231.296875 119.703125 235.449219 113.683594 238.902344 C 116.222656 227.066406 118.65625 215.984375 127.417969 207.355469 C 127.027344 207.148438 126.660156 206.945312 126.273438 206.742188 C 123.222656 209.441406 120.171875 212.117188 117.144531 214.816406 C 116.917969 214.652344 116.714844 214.46875 116.488281 214.304688 C 120.972656 206.3125 124.511719 197.867188 128.585938 189.6875 C 129.421875 189.382812 129.792969 190.015625 130.179688 190.527344 C 146.265625 210.992188 173.570312 214 195.285156 205.085938 C 206.335938 200.546875 216.488281 194.617188 225.878906 187.316406 C 233.496094 181.40625 239.898438 174.210938 246.816406 167.5625 C 247.945312 166.542969 248.84375 164.703125 250.972656 165.683594 Z M 250.972656 165.683594 " fill-opacity="1" fill-rule="nonzero"/><path fill="#fda761" d="M 242.828125 141.636719 C 238.140625 132.089844 228.890625 129.859375 219.824219 127.386719 C 214.992188 126.054688 210.101562 124.992188 205.25 123.703125 C 199.929688 122.273438 195.019531 119.984375 190.617188 116.609375 C 190.023438 116.140625 189.472656 115.035156 188.40625 115.976562 C 187.28125 116.199219 186.894531 115.425781 186.523438 114.605469 C 186.300781 111.558594 184.109375 109.023438 184.148438 105.894531 C 184.375 102.523438 182.882812 99.394531 182.839844 96 C 182.777344 90.765625 184.558594 85.898438 185.296875 80.828125 C 186.175781 74.878906 182.859375 68.703125 177.804688 67.085938 C 174.019531 66.65625 171.789062 64.019531 169.640625 61.28125 C 169.414062 59.359375 171.359375 59.335938 172.199219 58.355469 C 172.914062 57.519531 174.917969 57.703125 174.265625 55.78125 C 171.03125 54.632812 167.632812 54.042969 164.605469 52.34375 C 161.78125 50.75 159.242188 48.867188 158.054688 45.679688 C 158.425781 43.757812 160.203125 43.980469 161.472656 43.574219 C 165.546875 42.242188 169.351562 40.484375 172.382812 37.355469 C 172.976562 36.742188 173.898438 36.046875 172.28125 35.515625 C 169.027344 35.3125 165.832031 35.964844 162.578125 35.804688 C 157.6875 35.558594 153.0625 34.414062 148.804688 32.039062 C 147.679688 31.40625 145.917969 30.835938 147.042969 28.832031 C 147.371094 28.808594 147.699219 28.726562 148.046875 28.75 C 149.214844 28.789062 150.441406 28.707031 151.015625 27.605469 C 151.730469 26.214844 150.113281 25.804688 149.5625 24.945312 C 149.214844 24.414062 148.417969 24.210938 148.394531 23.125 C 150.851562 22.65625 153.347656 23.984375 156.355469 23.167969 C 154.554688 20.121094 152.425781 17.257812 151.976562 13.371094 C 155.414062 14.515625 157.605469 17.320312 160.695312 18.402344 C 162.191406 18.914062 163.828125 20.734375 165.21875 19.484375 C 166.507812 18.339844 164.890625 16.625 164.5625 15.152344 C 164.175781 13.433594 163.335938 11.796875 163.929688 9.691406 C 165.28125 11.019531 166.507812 12.246094 167.757812 13.453125 C 173.488281 19.097656 180.753906 21.121094 188.425781 22 C 197.554688 23.0625 206.109375 25.804688 214.132812 30.261719 C 214.871094 30.671875 215.730469 31.652344 216.507812 31.019531 C 217.46875 30.242188 216.855469 29.054688 216.222656 28.320312 C 214.726562 26.621094 215.441406 25.3125 216.652344 23.945312 C 219.394531 20.835938 222.074219 17.707031 225.390625 15.171875 C 232.410156 9.792969 239.796875 8.957031 247.617188 13.269531 C 248.78125 13.925781 249.929688 14.640625 251.074219 15.335938 C 254.472656 17.421875 256.804688 19.691406 257.070312 24.351562 C 257.480469 31.589844 260.46875 38.195312 265.21875 43.839844 C 266.445312 45.289062 267.835938 46.578125 269.226562 47.867188 C 270.027344 48.601562 271.132812 49.605469 272.132812 48.542969 C 273.054688 47.558594 271.785156 46.722656 271.191406 46.046875 C 268 42.386719 265.421875 38.359375 263.355469 34.003906 C 261.65625 30.382812 260.265625 26.664062 259.445312 22.183594 C 263.476562 24.128906 266.382812 26.722656 269.578125 28.871094 C 278.644531 34.921875 288.570312 39.300781 298.289062 44.105469 C 307.378906 48.601562 309.609375 56.003906 304.226562 64.59375 C 300.316406 70.828125 295.671875 76.59375 291.453125 82.648438 C 285.558594 91.132812 282.121094 100.457031 282.695312 110.925781 C 282.859375 114.035156 281.34375 113.296875 279.707031 112.5 C 270.703125 108.207031 264.726562 101.007812 260.46875 92.238281 C 254.777344 80.519531 251.6875 67.863281 247.0625 55.757812 C 244.363281 48.683594 242.007812 41.445312 236.972656 35.476562 C 236.09375 34.433594 235.132812 33.675781 234.085938 32.898438 C 231.488281 31.589844 231.242188 33.429688 231.304688 35.148438 C 231.40625 37.703125 231.734375 40.261719 231.9375 42.816406 C 233.535156 63.855469 235.949219 84.773438 240.003906 105.488281 C 241.539062 113.257812 243.15625 121.007812 244.21875 128.859375 C 244.628906 131.863281 244.628906 134.867188 244.769531 137.875 C 244.832031 139.386719 244.996094 141.25 242.828125 141.636719 Z M 242.828125 141.636719 " fill-opacity="1" fill-rule="nonzero"/><path fill="#fcfcfc" d="M 147.003906 28.871094 C 146.839844 30.324219 147.984375 30.753906 148.949219 31.222656 C 155.558594 34.574219 162.496094 35.722656 169.84375 34.535156 C 170.949219 34.351562 172.523438 33.265625 173.097656 35.394531 C 171.339844 39.359375 167.449219 40.503906 163.96875 42.183594 C 162.457031 42.898438 160.796875 43.265625 159.222656 43.859375 C 158.527344 44.125 157.542969 44.328125 158.382812 45.433594 C 161.371094 50.648438 166.324219 52.835938 171.828125 54.144531 C 172.957031 54.410156 174.367188 54.082031 174.878906 55.617188 C 174.46875 57.84375 172.320312 57.96875 170.847656 58.929688 C 170.210938 59.359375 168.492188 59.316406 169.90625 60.789062 C 172.382812 62.855469 174.121094 65.902344 177.683594 66.492188 C 182.042969 68.660156 184.191406 72.382812 184.660156 77.042969 C 184.96875 80.132812 184.867188 83.261719 183.988281 86.285156 C 182.164062 92.542969 182.410156 98.757812 184.417969 104.914062 C 183.597656 108.65625 186.21875 111.476562 187.078125 114.769531 C 187.34375 115.363281 187.691406 115.851562 188.367188 115.996094 C 193.054688 121.496094 199.316406 124.320312 206.070312 126.179688 C 213.457031 128.222656 221.011719 129.632812 228.253906 132.210938 C 234.148438 134.296875 239.082031 137.648438 240.902344 144.089844 C 242.273438 148.917969 242.375 153.085938 237.832031 156.992188 C 226.964844 166.378906 215.441406 174.71875 203.203125 182.144531 C 186.054688 192.550781 168.675781 191.753906 150.996094 183.777344 C 147.863281 182.367188 144.648438 181.160156 141.457031 179.875 C 140.433594 180.425781 139.535156 180.058594 138.613281 179.566406 C 134.210938 177.195312 129.914062 174.640625 125.65625 172.042969 C 123.691406 170.855469 123.179688 169.261719 123.222656 167.011719 C 123.324219 160.570312 127.621094 156.746094 131.757812 152.84375 C 134.683594 150.082031 137.609375 147.320312 140.332031 144.378906 C 143.464844 140.984375 145.898438 137.140625 147.066406 132.578125 C 148.128906 128.347656 149.726562 124.339844 151.976562 120.535156 C 153.960938 117.183594 155.476562 113.605469 156.5 109.78125 C 157.542969 105.855469 157.644531 102.09375 156.234375 98.308594 C 155.007812 94.199219 152.285156 91.195312 149.03125 88.515625 C 144.117188 84.445312 138.40625 81.582031 133.230469 77.945312 C 127.152344 73.652344 121.726562 68.761719 118.78125 61.710938 C 117.449219 58.519531 116.449219 55.25 117.554688 51.730469 C 118.023438 51.242188 118.800781 51.484375 119.25 50.976562 C 123.898438 42.507812 131.449219 37.273438 139.738281 33.042969 C 142.234375 31.734375 144.242188 29.628906 147.003906 28.871094 Z M 147.003906 28.871094 " fill-opacity="1" fill-rule="nonzero"/><path fill="#fda761" d="M 117.921875 51.730469 C 117.492188 58.582031 120.089844 64.285156 124.550781 69.253906 C 129.363281 74.613281 135.359375 78.375 141.394531 82.175781 C 147.742188 86.164062 154.496094 89.925781 156.929688 97.859375 C 158.21875 106.835938 155.273438 114.6875 150.667969 122.171875 C 149.152344 124.625 148.109375 127.40625 147.496094 130.226562 C 146.125 136.710938 142.746094 142.085938 138 146.382812 C 131.941406 151.859375 126.003906 157.300781 122.667969 164.945312 C 122.035156 166.441406 121.378906 166.277344 120.296875 165.234375 C 118.042969 163.023438 116.753906 160.367188 116.039062 157.382812 C 113.601562 147.421875 109.835938 138.019531 104.230469 129.410156 C 103.125 127.734375 102.859375 126.136719 103.308594 124.09375 C 105.988281 111.886719 105.988281 99.476562 105.988281 87.0625 C 105.988281 77.25 105.191406 67.394531 106.5625 57.597656 C 106.828125 55.738281 107.625 53.941406 107.238281 51.792969 C 105.3125 52.46875 104.761719 54.101562 104.085938 55.535156 C 101.710938 60.460938 100.894531 65.738281 100.585938 71.136719 C 99.6875 86.632812 99.746094 102.195312 97.292969 117.589844 C 95.695312 127.632812 92.195312 136.792969 84.785156 144.109375 C 83.703125 145.195312 82.453125 146.933594 81.082031 146.605469 C 79.75 146.300781 80.179688 144.132812 79.914062 142.78125 C 78.074219 134.09375 73.632812 126.855469 67.59375 120.496094 C 63.132812 115.773438 58.160156 111.601562 53.371094 107.226562 C 50.28125 104.421875 47.578125 101.296875 45.878906 97.449219 C 43.792969 92.707031 44.53125 87.617188 48.152344 84.121094 C 56.6875 75.816406 66.53125 68.925781 75.105469 59.277344 C 75.167969 66.617188 73.960938 72.75 72.054688 78.804688 C 71.769531 79.722656 70.441406 81.03125 71.871094 81.726562 C 73.53125 82.523438 74.144531 80.867188 74.695312 79.660156 C 77.808594 72.894531 78.769531 65.757812 78.21875 58.398438 C 78.054688 56.351562 78.585938 54.757812 79.8125 53.140625 C 82.597656 49.503906 85.15625 45.699219 87.917969 42.058594 C 93.730469 34.414062 100.300781 32.652344 109.203125 36.335938 C 111.371094 37.234375 113.335938 38.542969 115.484375 39.523438 C 117.714844 40.546875 118.902344 41.792969 117.265625 44.207031 C 116.695312 45.554688 117.0625 47.046875 116.53125 48.417969 C 115.996094 49.851562 116.714844 50.933594 117.921875 51.730469 Z M 117.921875 51.730469 " fill-opacity="1" fill-rule="nonzero"/><path fill="#fda65f" d="M 264.398438 253.585938 C 264.152344 250.925781 263.90625 248.269531 263.640625 245.386719 C 266.054688 245.386719 267.488281 248.0625 269.925781 247.101562 C 270.332031 246.941406 270.476562 247.921875 270.191406 248.453125 C 269.738281 249.3125 268.878906 250.046875 269.554688 251.398438 C 271.171875 250.824219 271.785156 249.332031 272.359375 248.023438 C 273.21875 246.101562 274.550781 245.488281 276.574219 245.488281 C 285.746094 245.488281 292.457031 250.046875 297.183594 257.328125 C 306.84375 272.128906 305.78125 289.246094 294.300781 302.679688 C 286.851562 311.410156 278.070312 318.605469 267.121094 322.757812 C 265.195312 323.535156 264.664062 322.738281 265.011719 320.917969 C 265.851562 316.417969 267.058594 312.042969 269.085938 307.933594 C 270.824219 306.175781 273.117188 305.214844 275.121094 303.84375 C 280.015625 300.46875 281.875 295.605469 282.203125 289.941406 C 281.324219 293.722656 279.5625 297.074219 277.066406 300 C 275.65625 301.65625 274.304688 303.558594 271.746094 303.597656 C 270.230469 302.84375 271.152344 301.636719 271.296875 300.652344 C 272.808594 290.777344 272.359375 281.105469 268.695312 271.703125 C 268.574219 271.394531 268.492188 271.046875 268.308594 270.78125 C 264.828125 265.996094 264.253906 260.558594 264.726562 254.875 C 264.789062 254.382812 264.726562 253.953125 264.398438 253.585938 Z M 264.398438 253.585938 " fill-opacity="1" fill-rule="nonzero"/><path fill="#fda661" d="M 107.832031 317.402344 C 88.714844 312.410156 74.101562 292.660156 76.3125 274.257812 C 77.746094 262.355469 83.355469 253.011719 94.507812 247.53125 C 99.789062 244.9375 105.109375 245.507812 110.554688 246.714844 C 111.800781 247 111.78125 247.65625 111.742188 248.636719 C 111.351562 256.101562 111.003906 263.5625 110.636719 271.027344 C 109.507812 274.050781 107.769531 276.792969 106.253906 279.613281 C 100.09375 291.167969 100.976562 302.308594 107.851562 313.207031 C 108.445312 314.148438 109.160156 315.050781 109.347656 316.171875 C 109.550781 317.402344 109.058594 317.890625 107.832031 317.402344 Z M 107.832031 317.402344 " fill-opacity="1" fill-rule="nonzero"/><path fill="#cdcdd0" d="M 162.3125 255.546875 C 162.433594 267.734375 165.8125 279.265625 169.761719 290.59375 C 171.503906 295.605469 174.121094 300.285156 177.335938 304.640625 C 183.125 312.472656 188.714844 311.632812 194.628906 305.253906 C 199.480469 300.039062 202.609375 293.558594 205.394531 286.953125 C 206.664062 283.949219 207.378906 280.757812 209.386719 277.917969 C 210.734375 275.996094 210.410156 272.785156 210.550781 270.148438 C 210.757812 266.589844 210.714844 263.011719 210.777344 259.453125 C 211.617188 261.375 211.308594 263.421875 211.308594 265.402344 C 211.328125 290.289062 205.742188 314.128906 197.515625 337.4375 C 196.984375 338.929688 196.226562 339.277344 194.855469 339.257812 C 188.589844 339.238281 182.328125 339.238281 176.066406 339.300781 C 174.796875 339.320312 174.082031 339.011719 173.652344 337.644531 C 165.996094 313.617188 159.855469 289.304688 161.042969 263.769531 C 161.1875 260.988281 161.289062 258.207031 162.3125 255.546875 Z M 162.3125 255.546875 " fill-opacity="1" fill-rule="nonzero"/><path fill="#cdcdd0" d="M 250.972656 165.683594 C 249.4375 165.746094 248.679688 166.972656 247.757812 167.890625 C 238.488281 177.234375 229.402344 186.785156 218.246094 194.023438 C 202.179688 204.429688 185.277344 212.464844 165.421875 210.5625 C 151.300781 209.214844 139.511719 202.875 130.140625 192.203125 C 129.503906 191.464844 129.074219 190.566406 128.5625 189.730469 C 131.246094 182.796875 131.246094 182.796875 137.835938 186.027344 C 147.597656 190.8125 157.585938 194.964844 168.433594 196.621094 C 184.230469 199.050781 198.230469 194.226562 211.453125 186.109375 C 223.382812 178.769531 234.539062 170.425781 244.730469 160.816406 C 245.816406 159.792969 246.304688 159.160156 247.308594 160.9375 C 248.269531 162.65625 249.746094 164.109375 250.972656 165.683594 Z M 250.972656 165.683594 " fill-opacity="1" fill-rule="nonzero"/><path fill="#c57446" d="M 242.828125 141.636719 C 245.117188 138.203125 243.726562 134.417969 243.378906 130.964844 C 242.5625 122.90625 240.820312 114.953125 239.265625 106.980469 C 237.179688 96.40625 235.519531 85.753906 234.085938 75.0625 C 232.367188 62.160156 231.917969 49.132812 230.21875 36.230469 C 230.136719 35.679688 230.136719 35.109375 230.179688 34.554688 C 230.261719 33.511719 229.605469 32.101562 231.039062 31.632812 C 232.265625 31.222656 233.472656 31.632812 234.066406 33 C 233.226562 32.917969 232.714844 33.164062 233.125 34.105469 C 239.960938 49.480469 242.929688 66.105469 248.578125 81.851562 C 250.582031 87.433594 252.753906 92.933594 255.515625 98.1875 C 256.152344 99.394531 256.601562 100.476562 256.070312 101.96875 C 251.851562 113.542969 249.046875 125.464844 247.535156 137.710938 C 247.164062 140.738281 246.328125 143.761719 244.75 146.890625 C 243.726562 145.011719 243.074219 143.394531 242.828125 141.636719 Z M 242.828125 141.636719 " fill-opacity="1" fill-rule="nonzero"/><path fill="#fcfbfb" d="M 74.246094 339.523438 C 68.90625 338.398438 67.839844 335.496094 71.21875 331.34375 C 72.382812 329.914062 73.816406 328.933594 75.554688 328.339844 C 76.496094 328.03125 78.175781 328.339844 77.746094 326.582031 C 77.378906 325.046875 75.984375 324.71875 74.53125 324.742188 C 70.890625 324.824219 66.53125 328.441406 65.609375 332.714844 C 65.097656 335.109375 64.21875 334.921875 62.457031 334.207031 C 58.34375 332.53125 56.398438 330.222656 56.359375 326.683594 C 56.316406 323.289062 58.917969 319.914062 62.664062 318.402344 C 63.523438 318.054688 64.996094 318.339844 64.953125 316.949219 C 64.914062 315.722656 63.726562 315.191406 62.703125 314.703125 C 59.265625 313.003906 55.582031 313.761719 51.304688 313.964844 C 55.765625 310.121094 60.390625 308.078125 65.261719 306.480469 C 69.210938 305.195312 73.507812 303.476562 77.316406 304.273438 C 81.0625 305.03125 83.375 309.324219 86.402344 311.980469 C 86.792969 312.453125 86.894531 313.023438 86.667969 313.554688 C 85.460938 316.542969 86.894531 318.730469 88.796875 320.773438 C 91.007812 323.144531 92.972656 325.703125 94.40625 328.644531 C 95.613281 331.121094 95.164062 333.125 93.199219 334.964844 C 90.722656 337.273438 87.632812 338.441406 84.417969 338.746094 C 81.0625 339.054688 77.664062 339.667969 74.246094 339.523438 Z M 74.246094 339.523438 " fill-opacity="1" fill-rule="nonzero"/><path fill="#fbfcfc" d="M 313.515625 305.847656 C 319.0625 307.359375 324.222656 309.628906 328.96875 314.027344 C 323.484375 313.945312 317.898438 312.003906 314.089844 317.585938 C 315.933594 318.21875 317.46875 318.605469 318.859375 319.261719 C 322.050781 320.792969 324.117188 324.535156 323.546875 327.441406 C 322.910156 330.628906 319.289062 333.984375 316.15625 334.515625 C 314.5625 334.78125 314.621094 333.757812 314.316406 332.816406 C 313.003906 328.808594 310.285156 326.234375 306.273438 324.984375 C 305.042969 324.597656 303.878906 324.578125 302.730469 325.292969 C 302.015625 325.742188 301.460938 326.355469 301.441406 327.152344 C 301.402344 328.238281 302.425781 328.15625 303.160156 328.296875 C 304.941406 328.625 306.601562 329.117188 307.949219 330.488281 C 309.730469 332.304688 311.53125 334.308594 310.550781 336.925781 C 309.648438 339.300781 307.050781 339.359375 304.820312 339.566406 C 298.3125 340.363281 292.089844 339.441406 286.6875 335.578125 C 282.46875 332.570312 282.019531 329.257812 284.824219 324.863281 C 286.933594 321.53125 289.652344 318.710938 292.824219 316.378906 C 298.023438 312.535156 302.957031 308.21875 309.34375 306.378906 C 310.671875 305.929688 312.023438 305.195312 313.515625 305.847656 Z M 313.515625 305.847656 " fill-opacity="1" fill-rule="nonzero"/><path fill="#d1d0d6" d="M 212.679688 254.933594 C 220.230469 261.96875 221.601562 271.3125 222.03125 280.839844 C 222.6875 295.398438 220.867188 309.710938 216.628906 323.65625 C 214.417969 330.894531 211.390625 337.847656 208.382812 344.800781 C 207.421875 347.027344 206.480469 349.378906 206.152344 351.773438 C 205.78125 354.574219 205.621094 357.722656 208.75 359.398438 C 210.386719 360.277344 209.140625 361.832031 209.855469 362.875 C 208.628906 364.898438 206.785156 365.308594 204.699219 364.59375 C 202.242188 363.753906 200.910156 361.871094 200.644531 359.335938 C 200.296875 356.085938 200.832031 352.855469 201.730469 349.746094 C 204.679688 339.464844 207.910156 329.261719 210.714844 318.914062 C 215.710938 300.429688 217.796875 281.699219 214.746094 262.621094 C 214.316406 260.027344 213.375 257.492188 212.679688 254.933594 Z M 212.679688 254.933594 " fill-opacity="1" fill-rule="nonzero"/><path fill="#c37247" d="M 269.78125 307.953125 C 268.183594 312.351562 266.773438 316.765625 265.730469 321.347656 C 265.339844 323.042969 266.507812 322.449219 267.121094 322.738281 C 266.21875 323.535156 264.5625 323.839844 264.828125 325.476562 C 265.03125 326.746094 266.28125 325.804688 266.976562 326.171875 C 265.832031 328.605469 263.273438 329.15625 261.183594 330.097656 C 259.40625 330.894531 257.972656 331.878906 256.824219 333.390625 C 254.839844 326.519531 255.945312 319.730469 257.460938 312.984375 C 259.730469 302.902344 263.109375 293.046875 264.050781 282.660156 C 264.625 276.199219 264.4375 269.738281 264.417969 263.277344 C 264.398438 260.046875 264.398438 256.816406 264.378906 253.585938 C 264.519531 253.75 264.808594 253.953125 264.789062 254.097656 C 263.683594 261.683594 268.410156 267.488281 270.679688 274.074219 C 273.15625 281.25 273.609375 288.898438 272.789062 296.523438 C 272.542969 298.730469 272.441406 300.941406 272.277344 303.148438 C 272.132812 306.296875 268.714844 305.703125 267.367188 307.769531 C 268.164062 307.75 269.105469 307.15625 269.78125 307.953125 Z M 269.78125 307.953125 " fill-opacity="1" fill-rule="nonzero"/><path fill="#cfced2" d="M 256.847656 333.390625 C 256.804688 331.550781 257.03125 330.40625 259.464844 329.894531 C 262.125 329.320312 264.5 327.480469 266.996094 326.171875 C 280.585938 322.796875 291.535156 315.070312 301.09375 305.195312 C 302.34375 303.90625 303.40625 303.351562 305.105469 303.742188 C 307.929688 304.394531 310.835938 304.601562 313.515625 305.847656 C 305.371094 307.707031 298.925781 312.59375 292.558594 317.644531 C 289.835938 319.8125 287.484375 322.289062 285.582031 325.191406 C 282.839844 329.402344 283.308594 332.226562 287.402344 335.109375 C 291.289062 337.847656 295.9375 338.5 300.460938 339.382812 C 301.851562 339.648438 303.34375 339.484375 304.796875 339.523438 C 298.71875 341.058594 292.601562 340.097656 286.5 339.808594 C 278.804688 339.464844 271.132812 338.582031 263.4375 338.277344 C 259.855469 338.132812 257.828125 336.640625 256.847656 333.390625 Z M 256.847656 333.390625 " fill-opacity="1" fill-rule="nonzero"/><path fill="#cfcdd1" d="M 74.246094 339.523438 C 79.160156 337.316406 84.765625 338.789062 89.699219 336.292969 C 94.425781 333.902344 95.367188 331.980469 92.871094 327.5 C 91.683594 325.355469 90.210938 323.371094 88.429688 321.675781 C 85.542969 318.871094 84.027344 315.847656 86.421875 311.960938 C 93.035156 316.03125 99.871094 319.507812 107.464844 321.46875 C 108.527344 321.734375 109.589844 321.816406 110.613281 322.082031 C 112.847656 323.863281 114.625 326.171875 117.367188 327.378906 C 118.71875 327.972656 118.414062 329.421875 118.125 330.628906 C 118.023438 331.183594 117.921875 331.734375 117.777344 332.265625 C 116.324219 338.175781 116.101562 338.378906 109.960938 338.769531 C 100.585938 339.359375 91.234375 340.300781 81.839844 340.199219 C 79.300781 340.179688 76.703125 340.464844 74.246094 339.523438 Z M 74.246094 339.523438 " fill-opacity="1" fill-rule="nonzero"/><path fill="#c87546" d="M 118.148438 330.628906 C 118.167969 329.074219 117.695312 327.992188 116.039062 327.417969 C 113.460938 326.519531 111.617188 324.699219 110.636719 322.082031 C 111.902344 321.734375 113.171875 321.40625 114.6875 321 C 113.070312 318.199219 109.816406 318.976562 107.851562 317.421875 C 110.265625 316.417969 108.179688 315.4375 107.707031 314.742188 C 103.617188 308.8125 101.261719 302.308594 101.28125 295.09375 C 101.28125 285.890625 105.171875 278.140625 110.65625 271.046875 C 110.839844 286.15625 113.070312 300.921875 117.839844 315.273438 C 119.496094 320.367188 119.679688 325.476562 118.148438 330.628906 Z M 118.148438 330.628906 " fill-opacity="1" fill-rule="nonzero"/><path fill="#311512" d="M 122.667969 164.96875 C 123.097656 160.695312 125.472656 157.359375 128.277344 154.417969 C 131.960938 150.550781 135.972656 146.996094 139.738281 143.210938 C 142.871094 140.082031 145 136.300781 146.023438 131.984375 C 147.105469 127.386719 148.886719 123.070312 151.324219 119.042969 C 154.882812 113.15625 156.808594 106.898438 156.335938 99.964844 C 156.273438 99.230469 156.113281 98.371094 156.929688 97.859375 C 159.324219 103.421875 158.300781 109.023438 156.050781 114.136719 C 152.796875 121.578125 149.03125 128.734375 146.554688 136.585938 C 144.507812 143.089844 138.859375 147.382812 133.945312 151.984375 C 130.199219 155.5 126.191406 158.773438 124.714844 164.128906 C 123.34375 169.117188 123.609375 170.527344 128.011719 172.941406 C 132.433594 175.375 136.996094 177.5625 141.5 179.875 C 139 183.1875 137.035156 179.75 135.707031 178.832031 C 132.535156 176.664062 129.117188 174.945312 125.945312 172.796875 C 123.773438 171.347656 122.097656 169.546875 120.191406 167.339844 C 121.644531 167.011719 123.160156 166.808594 122.667969 164.96875 Z M 122.667969 164.96875 " fill-opacity="1" fill-rule="nonzero"/><path fill="#fcfbfb" d="M 322.542969 317.09375 C 325.550781 316.683594 327.882812 316.910156 330.09375 318.117188 C 332.347656 319.363281 333.042969 321 331.363281 323.226562 C 330.566406 324.292969 329.847656 325.761719 328.375 325.558594 C 327.066406 325.375 327.351562 323.757812 327.046875 322.757812 C 326.308594 320.488281 324.609375 318.953125 322.542969 317.09375 Z M 322.542969 317.09375 " fill-opacity="1" fill-rule="nonzero"/><path fill="#fcfbfb" d="M 51.671875 326.539062 C 49.441406 324.640625 46.496094 323.308594 47.476562 320.835938 C 48.253906 318.914062 49.726562 318.015625 51.550781 317.523438 C 53.144531 317.09375 55.007812 316.992188 56.890625 316.765625 C 54.457031 319.8125 51.9375 322.246094 51.671875 326.539062 Z M 51.671875 326.539062 " fill-opacity="1" fill-rule="nonzero"/><path fill="#d9bfc3" d="M 259.589844 346.085938 C 264.910156 350.851562 265.605469 356.824219 261.289062 359.746094 C 261.371094 355.226562 261.0625 351.015625 259.589844 346.085938 Z M 259.589844 346.085938 " fill-opacity="1" fill-rule="nonzero"/><path fill="#834735" d="M 117.921875 51.730469 C 115.730469 51.894531 115.179688 50.605469 115.546875 48.808594 C 115.894531 47.210938 116.285156 45.578125 117.265625 44.1875 C 117.675781 46.148438 119.332031 47.90625 117.878906 50.21875 C 117.390625 50.996094 118.71875 50.75 119.230469 50.933594 C 119.089844 51.691406 118.472656 51.648438 117.921875 51.730469 Z M 117.921875 51.730469 " fill-opacity="1" fill-rule="nonzero"/><path fill="#2f1119" d="M 164.75 225.410156 C 163.191406 225.410156 161.597656 225.550781 160.0625 225.367188 C 158.8125 225.203125 156.582031 226.125 156.644531 223.917969 C 156.683594 222.035156 158.75 222.769531 159.9375 222.710938 C 166.097656 222.363281 172.15625 221.421875 177.988281 219.4375 C 186.933594 216.390625 195.425781 212.546875 202.160156 205.617188 C 202.816406 204.941406 203.65625 203.796875 204.65625 204.820312 C 205.578125 205.757812 204.433594 206.699219 203.898438 207.4375 C 197.351562 216.617188 188.183594 221.726562 177.375 224.222656 C 173.222656 225.144531 169.003906 225.53125 164.75 225.410156 Z M 164.75 225.410156 " fill-opacity="1" fill-rule="nonzero"/><path fill="#4a1424" d="M 225.960938 99.128906 C 223.324219 107.449219 217.203125 111.335938 209.304688 109.679688 C 201.609375 108.082031 196.574219 100.761719 197.554688 92.625 C 198.539062 84.488281 204.839844 78.804688 212.722656 79.070312 C 217.714844 79.234375 221.214844 82.035156 224.101562 85.816406 C 228.296875 89.785156 227.292969 94.425781 225.960938 99.128906 Z M 225.960938 99.128906 " fill-opacity="1" fill-rule="nonzero"/><path fill="#4e1111" d="M 274.855469 95.097656 C 271.5 92.707031 268.796875 89.722656 266.402344 86.492188 C 259.976562 77.820312 257.335938 67.722656 255.78125 57.273438 C 255.660156 56.496094 255.148438 55.289062 256.417969 55.003906 C 257.625 54.714844 257.726562 55.984375 258.011719 56.742188 C 261.410156 66.1875 264.789062 75.632812 269.066406 84.734375 C 270.761719 88.3125 273.054688 91.519531 274.855469 95.097656 Z M 274.855469 95.097656 " fill-opacity="1" fill-rule="nonzero"/><path fill="#4a2117" d="M 183.800781 105.324219 C 181.367188 99.105469 181 92.726562 182.984375 86.367188 C 185.417969 78.558594 183.90625 71.914062 177.703125 66.453125 C 179.136719 65.328125 180.015625 66.679688 180.835938 67.351562 C 185.113281 70.871094 186.914062 75.511719 186.195312 80.949219 C 185.808594 83.914062 185.007812 86.820312 184.394531 89.742188 C 183.394531 94.40625 183.597656 98.984375 185.03125 103.542969 C 185.253906 104.300781 186.730469 105.628906 184.578125 106.078125 C 184.148438 105.996094 184.089844 105.570312 183.800781 105.324219 Z M 183.800781 105.324219 " fill-opacity="1" fill-rule="nonzero"/><path fill="#581415" d="M 225.183594 70.644531 C 224.324219 70.480469 223.8125 70.523438 223.484375 70.296875 C 218.535156 66.679688 212.90625 65.144531 206.867188 64.859375 C 205.824219 64.816406 204.757812 64.511719 204.65625 63.261719 C 204.574219 62.160156 205.539062 61.851562 206.398438 61.566406 C 212.269531 59.5625 222.730469 64.429688 225.183594 70.644531 Z M 225.183594 70.644531 " fill-opacity="1" fill-rule="nonzero"/><path fill="#432821" d="M 158.402344 45.414062 C 157.644531 45.351562 156.582031 45.453125 156.417969 44.574219 C 156.214844 43.492188 157.378906 43.613281 158.054688 43.410156 C 163.5625 41.652344 168.921875 39.625 173.097656 35.375 C 173.507812 35.722656 175.0625 33.695312 174.488281 35.964844 C 174.121094 37.355469 172.851562 38.257812 171.746094 39.195312 C 167.878906 42.46875 163.171875 44.023438 158.402344 45.414062 Z M 158.402344 45.414062 " fill-opacity="1" fill-rule="nonzero"/><path fill="#b2604a" d="M 225.960938 99.128906 C 226.433594 94.546875 226.414062 90.027344 224.101562 85.835938 C 230.628906 88.394531 231.019531 89.332031 227.578125 95.632812 C 226.964844 96.777344 227.332031 98.351562 225.960938 99.128906 Z M 225.960938 99.128906 " fill-opacity="1" fill-rule="nonzero"/><path fill="#4b251d" d="M 169.945312 60.769531 C 169.230469 60.726562 168.308594 61.320312 167.898438 60.359375 C 167.46875 59.335938 168.410156 59.113281 169.085938 58.746094 C 171.03125 57.679688 173.28125 57.210938 174.917969 55.617188 C 175.984375 55.78125 176.269531 56.210938 175.429688 57.066406 C 173.855469 58.640625 171.808594 59.5625 169.945312 60.769531 Z M 169.945312 60.769531 " fill-opacity="1" fill-rule="nonzero"/><path fill="#f1c89f" d="M 183.800781 105.324219 C 184.046875 105.589844 184.292969 105.855469 184.539062 106.121094 C 185.398438 109.003906 187.382812 111.539062 187.097656 114.75 C 184.90625 111.988281 183.414062 109.003906 183.800781 105.324219 Z M 183.800781 105.324219 " fill-opacity="1" fill-rule="nonzero"/><path fill="#37141b" d="M 180.628906 151.675781 C 177.765625 152.820312 177.234375 154.292969 178.582031 157.421875 C 179.8125 160.222656 180.261719 163.085938 183.554688 164.375 C 187.589844 165.929688 191.640625 166.214844 195.691406 164.886719 C 202.734375 162.554688 206.621094 157.117188 209.425781 150.632812 C 209.898438 149.53125 209.898438 147.527344 211.882812 148.261719 C 213.664062 148.917969 212.84375 150.53125 212.515625 151.757812 C 210.285156 160.285156 206.070312 167.238281 197.226562 170.285156 C 191.089844 172.410156 185.277344 171.511719 180.097656 167.5625 C 178.789062 166.5625 178.441406 166.480469 177.4375 167.953125 C 170.457031 178.136719 158.75 179.074219 149.871094 170.445312 C 147.085938 167.75 145.039062 164.621094 143.21875 161.285156 C 142.726562 160.386719 142.175781 159.363281 143.339844 158.648438 C 144.507812 157.933594 145.242188 158.855469 145.777344 159.710938 C 147.84375 162.941406 150.21875 165.867188 153.410156 168.054688 C 160.738281 173.0625 169.660156 171.675781 174.449219 164.804688 C 175.554688 163.207031 175.328125 155.726562 174.164062 154.292969 C 173.671875 153.679688 172.996094 153.78125 172.339844 153.742188 C 170.910156 153.617188 169.433594 153.761719 168.0625 153.085938 C 169.433594 151.453125 171.5 152.453125 173.140625 151.777344 C 175.308594 151.738281 176.863281 149.304688 179.277344 150.265625 C 179.894531 150.59375 180.40625 151.023438 180.628906 151.675781 Z M 180.628906 151.675781 " fill-opacity="1" fill-rule="nonzero"/><path fill="#2e1218" d="M 180.628906 151.675781 C 180.035156 151.59375 179.441406 151.511719 179.09375 150.921875 C 180.507812 149.203125 182.328125 147.851562 184.128906 146.707031 C 187.507812 144.5625 188.777344 141.554688 189.164062 137.894531 C 189.636719 134.890625 187.875 133.582031 185.335938 132.945312 C 178.972656 131.371094 172.914062 133.109375 166.917969 134.910156 C 164.789062 135.542969 162.703125 136.421875 160.796875 137.648438 C 157.707031 139.652344 157.460938 141.023438 159.570312 144.191406 C 161.1875 148.710938 165.097656 149.816406 169.167969 150.65625 C 170.765625 150.980469 172.503906 150.878906 173.734375 152.289062 C 172.011719 153.660156 169.96875 152.554688 168.144531 153.066406 C 163.191406 152.433594 159.179688 150.0625 155.925781 146.359375 C 152.695312 142.699219 152.960938 138.078125 157.09375 135.378906 C 165.710938 129.738281 175.351562 127.570312 185.5 129.246094 C 193.257812 130.515625 195.652344 136.566406 191.355469 143.148438 C 188.777344 147.074219 185.316406 150.226562 180.628906 151.675781 Z M 180.628906 151.675781 " fill-opacity="1" fill-rule="nonzero"/><path fill="#4b1422" d="M 116.019531 108.023438 C 118.699219 101.191406 123.261719 98.351562 130.261719 99.105469 C 136.792969 99.824219 142.152344 105.570312 143.21875 112.949219 C 144.015625 118.511719 140.535156 124.421875 135.175781 126.648438 C 129.484375 129 123.835938 127.425781 118.65625 122.046875 C 118.289062 120.394531 116.773438 119.453125 116.121094 117.917969 C 114.6875 114.585938 115.261719 111.335938 116.019531 108.023438 Z M 116.019531 108.023438 " fill-opacity="1" fill-rule="nonzero"/><path fill="#4c1214" d="M 90.085938 78.597656 C 96.042969 88.25 91.621094 121.167969 83.230469 128.449219 C 89.144531 112.007812 87.242188 95.34375 90.085938 78.597656 Z M 90.085938 78.597656 " fill-opacity="1" fill-rule="nonzero"/><path fill="#480d0d" d="M 124.59375 84.039062 C 124.429688 85.203125 123.570312 85.53125 122.773438 85.898438 C 117.796875 88.207031 113.808594 91.601562 111.066406 96.40625 C 110.757812 96.941406 110.492188 97.796875 109.652344 97.554688 C 108.8125 97.308594 109.101562 96.488281 109.203125 95.855469 C 110.0625 90.457031 116.285156 84.015625 121.585938 83.078125 C 122.75 82.894531 124.0625 82.421875 124.59375 84.039062 Z M 124.59375 84.039062 " fill-opacity="1" fill-rule="nonzero"/><path fill="#be683f" d="M 116.019531 108.023438 C 115.464844 112.96875 116.878906 117.550781 118.679688 122.070312 C 116.652344 120.167969 114.6875 118.203125 112.601562 116.40625 C 110.921875 114.953125 110.777344 113.296875 112.660156 112.398438 C 114.707031 111.417969 115.300781 109.78125 116.019531 108.023438 Z M 116.019531 108.023438 " fill-opacity="1" fill-rule="nonzero"/><path fill="#5e1810" d="M 269.78125 307.953125 C 268.308594 307.8125 266.464844 310.183594 265.75 308.527344 C 264.992188 306.769531 267.714844 306.480469 268.941406 305.601562 C 270.066406 304.785156 271.582031 304.519531 272.296875 303.148438 C 277.804688 299.304688 280.832031 293.96875 281.652344 287.058594 C 283.308594 287.9375 283.207031 289.222656 283.144531 290.347656 C 282.898438 296.707031 280.136719 301.695312 274.714844 305.113281 C 273.136719 306.132812 271.4375 307.011719 269.78125 307.953125 Z M 269.78125 307.953125 " fill-opacity="1" fill-rule="nonzero"/><path fill="#f2edee" d="M 213.582031 94.648438 C 211.328125 94.589844 209.691406 93.667969 209.691406 91.378906 C 209.691406 89.066406 211.308594 87.71875 213.539062 87.59375 C 215.667969 87.472656 217.203125 88.71875 217.304688 90.929688 C 217.429688 93.382812 215.730469 94.363281 213.582031 94.648438 Z M 213.582031 94.648438 " fill-opacity="1" fill-rule="nonzero"/><path fill="#4b1321" d="M 173.734375 152.269531 C 171.480469 151.839844 169.1875 151.535156 166.957031 150.980469 C 163.457031 150.101562 160.082031 148.957031 158.9375 144.929688 C 165.28125 139.121094 172.648438 135.707031 181.347656 135.257812 C 184.640625 135.09375 187.464844 135.953125 189.859375 138.222656 C 189.53125 142.292969 188.222656 145.417969 184.128906 147.546875 C 182.535156 148.382812 181.082031 150.203125 179.09375 150.921875 C 176.988281 150.039062 175.800781 152.925781 173.734375 152.269531 Z M 173.734375 152.269531 " fill-opacity="1" fill-rule="nonzero"/><path fill="#af979c" d="M 189.878906 138.222656 C 189.472656 138.34375 188.816406 138.691406 188.671875 138.550781 C 185.398438 135.054688 181.304688 135.992188 177.417969 136.628906 C 171.503906 137.566406 166.121094 139.835938 161.617188 143.886719 C 160.839844 144.601562 160.082031 145.152344 158.976562 144.910156 C 155.867188 141.144531 156.03125 139.410156 160.203125 136.996094 C 167.550781 132.742188 175.574219 131.003906 184.007812 131.761719 C 188.855469 132.210938 190.597656 134.359375 189.878906 138.222656 Z M 189.878906 138.222656 " fill-opacity="1" fill-rule="nonzero"/><path fill="#efeae9" d="M 129.097656 112.765625 C 127.007812 112.5 125.738281 111.417969 125.84375 109.25 C 125.964844 106.589844 127.765625 105.507812 130.121094 105.570312 C 132.105469 105.609375 133.597656 106.734375 133.433594 108.960938 C 133.230469 111.539062 131.429688 112.519531 129.097656 112.765625 Z M 129.097656 112.765625 " fill-opacity="1" fill-rule="nonzero"/><path fill="#fcfbfb" d="M 54.25 318.054688 L 56.890625 316.765625 C 56.890625 316.765625 61.085938 313.882812 63.480469 313.964844 C 65.855469 314.046875 57.933594 312.738281 57.933594 312.738281 L 52.980469 313.351562 L 51.324219 313.964844 C 51.324219 313.964844 48.234375 317.871094 47.476562 320.835938 L 50.914062 320.835938 Z M 54.25 318.054688 " fill-opacity="1" fill-rule="nonzero"/><path fill="#fcfbfb" d="M 329.765625 320.816406 L 324.242188 317.644531 L 322.542969 317.09375 C 322.542969 317.09375 319.105469 315.476562 315.503906 315.050781 L 320.539062 311.574219 L 327.414062 313.289062 L 328.949219 314.007812 C 328.949219 314.007812 332.570312 318.789062 332.265625 321.246094 Z M 329.765625 320.816406 " fill-opacity="1" fill-rule="nonzero"/></svg>