<svg xmlns="http://www.w3.org/2000/svg" xmlns:xlink="http://www.w3.org/1999/xlink" width="500" zoomAndPan="magnify" viewBox="0 0 375 149.999998" height="200" preserveAspectRatio="xMidYMid meet" version="1.0"><defs><g/><clipPath id="a286d6e3b0"><path d="M 3.269531 6.421875 L 140.421875 6.421875 L 140.421875 143.578125 L 3.269531 143.578125 Z M 3.269531 6.421875 " clip-rule="nonzero"/></clipPath><clipPath id="565cf16500"><path d="M 71.847656 6.421875 C 33.972656 6.421875 3.269531 37.125 3.269531 75 C 3.269531 112.875 33.972656 143.578125 71.847656 143.578125 C 109.71875 143.578125 140.421875 112.875 140.421875 75 C 140.421875 37.125 109.71875 6.421875 71.847656 6.421875 Z M 71.847656 6.421875 " clip-rule="nonzero"/></clipPath></defs><g clip-path="url(#a286d6e3b0)"><g clip-path="url(#565cf16500)"><path fill="#ffffff" d="M 3.269531 6.421875 L 140.421875 6.421875 L 140.421875 143.578125 L 3.269531 143.578125 Z M 3.269531 6.421875 " fill-opacity="1" fill-rule="nonzero"/></g></g><g fill="#000000" fill-opacity="1"><g transform="translate(12.409069, 94.499996)"><g><path d="M 52.421875 -30.125 L 41.5 0 L 33.09375 0 L 26.3125 -18.703125 L 19.3125 0 L 10.921875 0 L 0.0625 -30.125 L 8.28125 -30.125 L 15.40625 -9.75 L 22.796875 -30.125 L 30.1875 -30.125 L 37.359375 -9.75 L 44.6875 -30.125 Z M 52.421875 -30.125 "/></g></g></g><g fill="#000000" fill-opacity="1"><g transform="translate(64.873749, 94.499996)"><g><path d="M 33.546875 -14.953125 C 33.546875 -14.835938 33.488281 -14.050781 33.375 -12.59375 L 10.578125 -12.59375 C 10.992188 -10.726562 11.96875 -9.253906 13.5 -8.171875 C 15.03125 -7.085938 16.929688 -6.546875 19.203125 -6.546875 C 20.773438 -6.546875 22.164062 -6.78125 23.375 -7.25 C 24.59375 -7.71875 25.722656 -8.457031 26.765625 -9.46875 L 31.421875 -4.421875 C 28.578125 -1.171875 24.429688 0.453125 18.984375 0.453125 C 15.585938 0.453125 12.582031 -0.207031 9.96875 -1.53125 C 7.351562 -2.863281 5.335938 -4.703125 3.921875 -7.046875 C 2.503906 -9.398438 1.796875 -12.070312 1.796875 -15.0625 C 1.796875 -18.007812 2.492188 -20.664062 3.890625 -23.03125 C 5.285156 -25.40625 7.207031 -27.253906 9.65625 -28.578125 C 12.101562 -29.910156 14.835938 -30.578125 17.859375 -30.578125 C 20.804688 -30.578125 23.472656 -29.941406 25.859375 -28.671875 C 28.253906 -27.398438 30.132812 -25.578125 31.5 -23.203125 C 32.863281 -20.835938 33.546875 -18.085938 33.546875 -14.953125 Z M 17.921875 -23.96875 C 15.941406 -23.96875 14.28125 -23.40625 12.9375 -22.28125 C 11.59375 -21.164062 10.769531 -19.640625 10.46875 -17.703125 L 25.3125 -17.703125 C 25.007812 -19.597656 24.1875 -21.113281 22.84375 -22.25 C 21.5 -23.394531 19.859375 -23.96875 17.921875 -23.96875 Z M 17.921875 -23.96875 "/></g></g></g><g fill="#000000" fill-opacity="1"><g transform="translate(100.204817, 94.499996)"><g><path d="M 21.84375 -30.578125 C 24.644531 -30.578125 27.191406 -29.929688 29.484375 -28.640625 C 31.773438 -27.359375 33.570312 -25.550781 34.875 -23.21875 C 36.1875 -20.882812 36.84375 -18.164062 36.84375 -15.0625 C 36.84375 -11.96875 36.1875 -9.253906 34.875 -6.921875 C 33.570312 -4.585938 31.773438 -2.773438 29.484375 -1.484375 C 27.191406 -0.191406 24.644531 0.453125 21.84375 0.453125 C 17.695312 0.453125 14.539062 -0.851562 12.375 -3.46875 L 12.375 0 L 4.03125 0 L 4.03125 -41.546875 L 12.765625 -41.546875 L 12.765625 -26.9375 C 14.972656 -29.363281 18 -30.578125 21.84375 -30.578125 Z M 20.328125 -6.71875 C 22.566406 -6.71875 24.40625 -7.472656 25.84375 -8.984375 C 27.28125 -10.492188 28 -12.519531 28 -15.0625 C 28 -17.601562 27.28125 -19.628906 25.84375 -21.140625 C 24.40625 -22.648438 22.566406 -23.40625 20.328125 -23.40625 C 18.085938 -23.40625 16.25 -22.648438 14.8125 -21.140625 C 13.375 -19.628906 12.65625 -17.601562 12.65625 -15.0625 C 12.65625 -12.519531 13.375 -10.492188 14.8125 -8.984375 C 16.25 -7.472656 18.085938 -6.71875 20.328125 -6.71875 Z M 20.328125 -6.71875 "/></g></g></g><g fill="#ffffff" fill-opacity="1"><g transform="translate(138.842655, 94.499996)"><g><path d="M 18.375 0.453125 C 15.195312 0.453125 12.347656 -0.207031 9.828125 -1.53125 C 7.304688 -2.863281 5.335938 -4.703125 3.921875 -7.046875 C 2.503906 -9.398438 1.796875 -12.070312 1.796875 -15.0625 C 1.796875 -18.050781 2.503906 -20.71875 3.921875 -23.0625 C 5.335938 -25.414062 7.304688 -27.253906 9.828125 -28.578125 C 12.347656 -29.910156 15.195312 -30.578125 18.375 -30.578125 C 21.539062 -30.578125 24.375 -29.910156 26.875 -28.578125 C 29.375 -27.253906 31.332031 -25.414062 32.75 -23.0625 C 34.175781 -20.71875 34.890625 -18.050781 34.890625 -15.0625 C 34.890625 -12.070312 34.175781 -9.398438 32.75 -7.046875 C 31.332031 -4.703125 29.375 -2.863281 26.875 -1.53125 C 24.375 -0.207031 21.539062 0.453125 18.375 0.453125 Z M 18.375 -6.71875 C 20.613281 -6.71875 22.453125 -7.472656 23.890625 -8.984375 C 25.328125 -10.492188 26.046875 -12.519531 26.046875 -15.0625 C 26.046875 -17.601562 25.328125 -19.628906 23.890625 -21.140625 C 22.453125 -22.648438 20.613281 -23.40625 18.375 -23.40625 C 16.132812 -23.40625 14.285156 -22.648438 12.828125 -21.140625 C 11.367188 -19.628906 10.640625 -17.601562 10.640625 -15.0625 C 10.640625 -12.519531 11.367188 -10.492188 12.828125 -8.984375 C 14.285156 -7.472656 16.132812 -6.71875 18.375 -6.71875 Z M 18.375 -6.71875 "/></g></g></g><g fill="#ffffff" fill-opacity="1"><g transform="translate(175.517534, 94.499996)"><g><path d="M 34.390625 -30.125 L 34.390625 0 L 26.09375 0 L 26.09375 -3.578125 C 24.9375 -2.273438 23.554688 -1.273438 21.953125 -0.578125 C 20.347656 0.109375 18.613281 0.453125 16.75 0.453125 C 12.789062 0.453125 9.648438 -0.6875 7.328125 -2.96875 C 5.015625 -5.25 3.859375 -8.628906 3.859375 -13.109375 L 3.859375 -30.125 L 12.59375 -30.125 L 12.59375 -14.390625 C 12.59375 -9.535156 14.628906 -7.109375 18.703125 -7.109375 C 20.796875 -7.109375 22.472656 -7.789062 23.734375 -9.15625 C 25.003906 -10.519531 25.640625 -12.546875 25.640625 -15.234375 L 25.640625 -30.125 Z M 34.390625 -30.125 "/></g></g></g><g fill="#ffffff" fill-opacity="1"><g transform="translate(213.984168, 94.499996)"><g><path d="M 16.96875 -11.8125 L 12.765625 -7.671875 L 12.765625 0 L 4.03125 0 L 4.03125 -41.546875 L 12.765625 -41.546875 L 12.765625 -18.03125 L 25.53125 -30.125 L 35.953125 -30.125 L 23.40625 -17.359375 L 37.078125 0 L 26.484375 0 Z M 16.96875 -11.8125 "/></g></g></g><g fill="#ffffff" fill-opacity="1"><g transform="translate(250.939004, 94.499996)"><g><path d="M 33.9375 -30.125 L 20.328125 1.84375 C 18.941406 5.320312 17.234375 7.769531 15.203125 9.1875 C 13.171875 10.601562 10.71875 11.3125 7.84375 11.3125 C 6.269531 11.3125 4.71875 11.066406 3.1875 10.578125 C 1.65625 10.097656 0.40625 9.425781 -0.5625 8.5625 L 2.625 2.359375 C 3.300781 2.953125 4.078125 3.414062 4.953125 3.75 C 5.828125 4.082031 6.695312 4.25 7.5625 4.25 C 8.757812 4.25 9.726562 3.957031 10.46875 3.375 C 11.21875 2.800781 11.890625 1.84375 12.484375 0.5 L 12.59375 0.21875 L -0.453125 -30.125 L 8.5625 -30.125 L 17.03125 -9.6875 L 25.53125 -30.125 Z M 33.9375 -30.125 "/></g></g></g><g fill="#ffffff" fill-opacity="1"><g transform="translate(284.422332, 94.499996)"><g><path d="M 7.34375 0.453125 C 5.8125 0.453125 4.519531 -0.0664062 3.46875 -1.109375 C 2.425781 -2.160156 1.90625 -3.472656 1.90625 -5.046875 C 1.90625 -6.648438 2.425781 -7.945312 3.46875 -8.9375 C 4.519531 -9.925781 5.8125 -10.421875 7.34375 -10.421875 C 8.863281 -10.421875 10.144531 -9.925781 11.1875 -8.9375 C 12.238281 -7.945312 12.765625 -6.648438 12.765625 -5.046875 C 12.765625 -3.472656 12.238281 -2.160156 11.1875 -1.109375 C 10.144531 -0.0664062 8.863281 0.453125 7.34375 0.453125 Z M 7.34375 0.453125 "/></g></g></g><g fill="#ffffff" fill-opacity="1"><g transform="translate(299.092284, 94.499996)"><g><path d="M 18.59375 0.453125 C 15.382812 0.453125 12.5 -0.207031 9.9375 -1.53125 C 7.382812 -2.863281 5.390625 -4.703125 3.953125 -7.046875 C 2.515625 -9.398438 1.796875 -12.070312 1.796875 -15.0625 C 1.796875 -18.050781 2.515625 -20.71875 3.953125 -23.0625 C 5.390625 -25.414062 7.382812 -27.253906 9.9375 -28.578125 C 12.5 -29.910156 15.382812 -30.578125 18.59375 -30.578125 C 21.769531 -30.578125 24.539062 -29.910156 26.90625 -28.578125 C 29.28125 -27.253906 31.007812 -25.363281 32.09375 -22.90625 L 25.3125 -19.265625 C 23.738281 -22.023438 21.476562 -23.40625 18.53125 -23.40625 C 16.257812 -23.40625 14.375 -22.65625 12.875 -21.15625 C 11.382812 -19.664062 10.640625 -17.632812 10.640625 -15.0625 C 10.640625 -12.488281 11.382812 -10.453125 12.875 -8.953125 C 14.375 -7.460938 16.257812 -6.71875 18.53125 -6.71875 C 21.519531 -6.71875 23.78125 -8.097656 25.3125 -10.859375 L 32.09375 -7.171875 C 31.007812 -4.773438 29.28125 -2.90625 26.90625 -1.5625 C 24.539062 -0.21875 21.769531 0.453125 18.59375 0.453125 Z M 18.59375 0.453125 "/></g></g></g><g fill="#ffffff" fill-opacity="1"><g transform="translate(332.183663, 94.499996)"><g><path d="M 28.84375 -6.71875 L 28.84375 0 L 1.953125 0 L 1.953125 -5.265625 L 17.296875 -23.40625 L 2.359375 -23.40625 L 2.359375 -30.125 L 28.34375 -30.125 L 28.34375 -24.859375 L 12.984375 -6.71875 Z M 28.84375 -6.71875 "/></g></g></g></svg>